<svg id="Layer_1" data-name="Layer 1" xmlns="http://www.w3.org/2000/svg" viewBox="0 0 347.99 160.63"><defs><style>.cls-1{fill:#84c77a;}.cls-2{fill:none;}.cls-3{fill:#0b73b8;}.cls-4{fill:#5a5a5c;}</style></defs><circle class="cls-1" cx="80.11" cy="80.32" r="20.24"/><path class="cls-2" d="M20.12,85.83H11.05a69.24,69.24,0,0,0,118,43.47l-6.39-6.4A60.22,60.22,0,0,1,20.12,85.83Z"/><path class="cls-2" d="M11.05,74.81h9.07A60.21,60.21,0,0,1,122.69,37.74l6.39-6.4a69.24,69.24,0,0,0-118,43.47Z"/><path class="cls-3" d="M80.11,11a69.05,69.05,0,0,1,49,20.32l7.79-7.79A80.26,80.26,0,0,0,0,74.81H11.05A69.37,69.37,0,0,1,80.11,11Z"/><path class="cls-3" d="M129.08,129.3a69.24,69.24,0,0,1-118-43.47H0a80.26,80.26,0,0,0,136.87,51.25Z"/><path class="cls-3" d="M31.19,85.83H20.12A60.22,60.22,0,0,0,122.69,122.9l-7.79-7.79A49.21,49.21,0,0,1,31.19,85.83Z"/><path class="cls-3" d="M20.12,74.81H31.19A49.21,49.21,0,0,1,114.9,45.52l7.79-7.78A60.21,60.21,0,0,0,20.12,74.81Z"/><path class="cls-3" d="M39.93,80.32a40.16,40.16,0,0,0,68.57,28.39l-7.78-7.78a29.17,29.17,0,1,1,0-41.22l7.79-7.79a40.16,40.16,0,0,0-68.57,28.4Z"/><path class="cls-4" d="M163.5,35.14h13.58v3.07h-10.2v4.85H176v3h-9.14v5.49h10.45v3.09H163.5Z"/><path class="cls-4" d="M187.81,54.93c-5,0-7.25-5-7.25-10.67s2.26-10.79,7.28-10.79,7.28,5.1,7.28,10.79S192.86,54.93,187.81,54.93Zm0-2.78c2.7,0,3.88-2.9,4-6.81h-8C183.91,49.27,185.19,52.15,187.84,52.15Zm0-16c-2.56,0-3.84,3-3.93,6.52h7.86C191.63,39.15,190.35,36.17,187.81,36.17Z"/><path class="cls-4" d="M198,40.55h3.46l3.9,10.26h.06l4-10.26h3.41l-5.86,14.22h-3.09Z"/><path class="cls-4" d="M216.14,40.55h3.23v14.1h-3.23Z"/><path class="cls-4" d="M226.87,46.37l5.72-5.82h3.84l-5.6,5.66,5.77,8.44H233l-4.27-6.21-1.81,1.81v4.4h-3.23V40.55h3.23Z"/><path class="cls-4" d="M240.12,40.55h3.23V42.3h.08a4.86,4.86,0,0,1,4.21-2c3,0,5.05,2.15,5.05,5.57V60h-3.21V46.6c0-2.2-1.2-3.46-3-3.46s-3.15,1.45-3.15,3.68v7.83h-3.23Zm8.16-6.75,3,1.34-3.35,3.21h-2.34Z"/><path class="cls-4" d="M163.5,67.75h13.58v3.07h-10.2v4.85H176v3h-9.14v5.49h10.45v3.09H163.5Z"/><path class="cls-4" d="M184.16,79l5.72-5.82h3.84l-5.6,5.66,5.77,8.44h-3.65L186,81.05l-1.81,1.81v4.4h-3.23V73.16h3.23Z"/><path class="cls-4" d="M211.18,73.16v2.62h-3.46v0a4.72,4.72,0,0,1,2.7,4.58A7.44,7.44,0,1,1,203,73.16Zm-4,7.19A4.2,4.2,0,0,0,203,76a4.1,4.1,0,0,0-4.15,4.38A4.16,4.16,0,0,0,203,84.7,4.1,4.1,0,0,0,207.16,80.35Z"/><path class="cls-4" d="M219.35,76h-4.3V73.16h11.74V76h-4.21V87.26h-3.23Z"/><path class="cls-4" d="M232.37,85.73v6.83h-3.24V80.21c0-4.35,2.87-7.33,7.19-7.33,4.13,0,7.25,2.65,7.25,7.25,0,4.77-3.43,7.41-6.94,7.41a5.36,5.36,0,0,1-4.24-1.81Zm7.91-5.52c0-2.76-1.45-4.52-4-4.52s-4.1,1.82-4.1,4.58a4.15,4.15,0,0,0,4.12,4.46C238.78,84.73,240.28,83,240.28,80.21Z"/><path class="cls-4" d="M246.25,80.21c0-4.82,3.29-7.33,6.58-7.33A5.41,5.41,0,0,1,257.37,75h.06V73h3.26V87.26h-3.26V85.45h-.06a5.28,5.28,0,0,1-4.46,2.09C249.57,87.54,246.25,85.06,246.25,80.21Zm11.37,0c0-2.9-2-4.49-4-4.49a4.13,4.13,0,0,0-4.07,4.46c0,2.87,1.84,4.49,4.07,4.49A4.15,4.15,0,0,0,257.62,80.24Z"/><path class="cls-4" d="M268.33,76H264V73.16h11.73V76h-4.21V87.26h-3.23Z"/><path class="cls-4" d="M280.93,79.88a3.06,3.06,0,0,1-2.45-3c0-2.87,3-4,5.85-4,3,0,4.8.81,6.28,2.26l-1.93,1.92a5.89,5.89,0,0,0-4.29-1.56c-1.26,0-2.73.33-2.73,1.76,0,1.17,1.06,1.59,2.14,1.59h3.1v2.23h-3.24c-1.61,0-2.53.8-2.53,2,0,1.34,1.31,1.87,3.2,1.87A6.7,6.7,0,0,0,289.07,83l1.9,1.87a9.43,9.43,0,0,1-6.72,2.67c-4.38,0-6.36-1.61-6.36-4.18a3.55,3.55,0,0,1,3-3.43Z"/><path class="cls-4" d="M294.15,73.16h3.23v14.1h-3.23Zm3.18-6.75,3,1.34L297,71h-2.34Z"/><path class="cls-4" d="M300.89,80.21c0-4.82,3.29-7.33,6.58-7.33A5.44,5.44,0,0,1,312,75h.05V73h3.26V87.26h-3.26V85.45H312a5.3,5.3,0,0,1-4.46,2.09C304.21,87.54,300.89,85.06,300.89,80.21Zm11.38,0c0-2.9-1.95-4.49-4-4.49a4.13,4.13,0,0,0-4.07,4.46c0,2.87,1.83,4.49,4.07,4.49A4.15,4.15,0,0,0,312.27,80.24Z"/><path class="cls-4" d="M163.5,100.36h13.58v3.07h-10.2v4.85H176v3h-9.14v5.49h10.45v3.09H163.5Z"/><path class="cls-4" d="M184.72,118.37v6.8h-3.24v-19.4h3.24v7.89c0,2.09,1,3.65,3.06,3.65,1.62,0,3-1.34,3-3.65v-7.89h3.24v14.1h-3.24v-1.78h0a3.43,3.43,0,0,1-3.07,2,3.14,3.14,0,0,1-2.95-1.73Z"/><path class="cls-4" d="M202,118.12v7h-3.24V105.32c0-4,2.57-6.63,6.61-6.63,3.79,0,6.22,2.28,6.22,5.29a4.42,4.42,0,0,1-3.1,4.3c2.85.78,4.52,2.7,4.52,5.6a6.29,6.29,0,0,1-6.47,6.27,5.36,5.36,0,0,1-4.46-2Zm7.75-4.41c0-2.67-1.93-3.82-4.1-3.82h-.89v-2.64h.83a2.76,2.76,0,0,0,2.76-3,2.87,2.87,0,0,0-3.12-2.73c-1.84,0-3.23,1.5-3.23,3.79V113a4,4,0,0,0,3.93,4.29A3.53,3.53,0,0,0,209.73,113.71Z"/><path class="cls-4" d="M216.17,112.82a7.44,7.44,0,1,1,7.41,7.33A7.23,7.23,0,0,1,216.17,112.82Zm11.62,0a4.29,4.29,0,0,0-4.21-4.49,4.19,4.19,0,0,0-4.15,4.49,4.27,4.27,0,0,0,4.18,4.49A4.22,4.22,0,0,0,227.79,112.82Z"/><path class="cls-4" d="M238.25,103.37c-.62-1.67-1.51-1.84-2.09-1.84a5.55,5.55,0,0,0-1.43.2L234.32,99a9.88,9.88,0,0,1,2.28-.28c2.18,0,3.43,1.08,4.41,3.68l6.58,17.5h-3.4l-3.6-10h-.06l-4.09,10H233l6.13-14.1Z"/><path class="cls-4" d="M251.52,105.77h3.23v14.1h-3.23Z"/><path class="cls-4" d="M258.27,112.82c0-4.82,3.28-7.33,6.57-7.33a5.43,5.43,0,0,1,4.55,2.12h.05v-2h3.27v14.24h-3.27v-1.81h-.05a5.3,5.3,0,0,1-4.46,2.09C261.58,120.15,258.27,117.67,258.27,112.82Zm11.37,0c0-2.9-1.95-4.49-4-4.49a4.13,4.13,0,0,0-4.07,4.46c0,2.87,1.84,4.49,4.07,4.49A4.15,4.15,0,0,0,269.64,112.85Z"/><path class="cls-4" d="M291.69,105.77v2.62h-3.45v0a4.74,4.74,0,0,1,2.7,4.58,7.45,7.45,0,1,1-7.44-7.25Zm-4,7.19a4.2,4.2,0,0,0-4.21-4.38,4.11,4.11,0,0,0-4.16,4.38,4.17,4.17,0,0,0,4.19,4.35A4.11,4.11,0,0,0,287.68,113Z"/><path class="cls-4" d="M298.44,118.37v6.8h-3.23v-19.4h3.23v7.89c0,2.09,1,3.65,3.07,3.65,1.61,0,3-1.34,3-3.65v-7.89h3.23v14.1h-3.23v-1.78h-.06a3.43,3.43,0,0,1-3.07,2,3.14,3.14,0,0,1-2.95-1.73Z"/><path class="cls-4" d="M311.15,112.82a7.45,7.45,0,1,1,7.42,7.33A7.23,7.23,0,0,1,311.15,112.82Zm11.63,0a4.3,4.3,0,0,0-4.21-4.49,4.2,4.2,0,0,0-4.16,4.49,4.27,4.27,0,0,0,4.19,4.49A4.22,4.22,0,0,0,322.78,112.82Z"/><path class="cls-4" d="M341.85,113.49c0,3.43-1.67,6.66-6.36,6.66s-6.24-3.23-6.24-6.66v-7.72h3.23v7.55c0,2.48,1,4,3,4s3.09-1.51,3.09-4v-7.55h3.24ZM337,99l3,1.34-3.34,3.21h-2.34Z"/></svg>