<?xml version="1.0" encoding="utf-8"?>
<!-- Generator: Adobe Illustrator 25.2.0, SVG Export Plug-In . SVG Version: 6.00 Build 0)  -->
<svg version="1.1" id="Layer_1" xmlns="http://www.w3.org/2000/svg" xmlns:xlink="http://www.w3.org/1999/xlink" x="0px" y="0px"
	 viewBox="0 0 141 40" style="enable-background:new 0 0 141 40;" xml:space="preserve">
<style type="text/css">
	.st0{fill:#EC3F00;}
	.st1{fill:#282828;}
	.st2{fill:#FFFFFF;}
	.st3{fill:#C0C0C0;}
</style>
<g>
	<path class="st0" d="M141,4.9h-7.3v30.9h-8.5V4.9h-7.3V0.4H141V4.9z"/>
	<g>
		<path class="st1" d="M73.5,29.8c0,1.5-0.9,2.2-2.6,2.2c-1.6,0-2.4-0.8-2.4-2.5V0.4h-8.5V30c0,0.5-0.3,1.1-0.8,1.4
			c-0.5,0.4-1.1,0.5-1.7,0.5c-1.7,0-2.5-0.7-2.5-2.2V0.4h-8.5v29.2c0,2.4,1.2,4.1,3.8,5.6c2.1,1.1,4.4,1.7,6.9,1.7
			c2.8,0,5.1-0.7,6.9-2c1.9,1.3,4.3,2,7,2c2.6,0,4.8-0.5,6.9-1.7c2.5-1.3,3.7-3.2,3.7-5.6V0.4h-8.5L73.5,29.8L73.5,29.8z"/>
		<path class="st1" d="M18,1.4c-2-1-4.4-1.4-7-1.4H0v0.4V3v3.9v1.4v27.4h8.5V6.8c0-1.5,0.8-2.2,2.5-2.2s2.5,0.7,2.5,2.2v28.9h8.5
			V6.9C21.9,4.5,20.5,2.7,18,1.4z"/>
		<polygon class="st1" points="25.1,35.7 43.8,35.7 43.8,30.8 33.6,30.8 33.6,18.8 43.6,18.8 43.6,14.1 33.6,14.1 33.6,5.2 
			43.8,5.2 43.8,0.4 25.1,0.4 		"/>
		<path class="st1" d="M104.5,32.2V20.4c-0.4-0.4-0.7-0.7-1.1-1.1l-6.1-4.2c-2.4-2-3.6-4.1-3.6-6.2V7c0-1.8,0.9-2.6,2.6-2.6
			c1.9,0,2.9,1.6,2.9,4.8v4h5.6V2.2c-0.2-0.2-0.4-0.3-0.5-0.4c-1.7-1.1-4.3-1.7-8-1.7c-7.2,0-10.7,2.2-10.7,6.7v4.2
			c0,2,0.8,3.3,3.1,5.4l6.4,5c2.5,1.9,3.7,3.6,3.7,4.9v2.8c0,2-1,3-2.8,3c-1.6,0-2.4-0.7-2.4-2.2v-6.9h-8.6v4.8
			c0,5.8,3.7,8.8,11.1,8.8c2.3,0,4.1-0.3,5.7-0.6c0-0.1,0-0.2,0-0.3C101.7,34.1,102.9,32.6,104.5,32.2z"/>
	</g>
	<path class="st0" d="M115.4,0.4h-8.5v20.1c3.3,0.4,6.3,1.7,8.5,3.8V0.4z"/>
	<g>
		<g>
			<g>
				<path class="st2" d="M109.8,36.8c0,1.7-1.3,3-3,3s-3-1.3-3-3c0-1.7,1.3-3,3-3S109.8,35.2,109.8,36.8z M116.7,36.8h2.6
					c0-7-5.6-12.7-12.7-12.7v2.6C112.3,26.8,116.7,31.3,116.7,36.8z M112.1,36.8h2.5c0-4.3-3.4-7.8-7.8-7.8v2.5
					C109.7,31.5,112.1,33.9,112.1,36.8z"/>
				<path class="st3" d="M106.8,40c-1.8,0-3.3-1.4-3.3-3.3c0-1.8,1.4-3.3,3.3-3.3s3.3,1.4,3.3,3.3C110,38.6,108.5,40,106.8,40z
					 M106.8,33.9c-1.6,0-2.8,1.2-2.8,2.8c0,1.6,1.2,2.8,2.8,2.8s2.8-1.2,2.8-2.8C109.6,35.2,108.4,33.9,106.8,33.9z M119.6,37h-3
					v-0.2c0-5.4-4.4-9.8-9.8-9.8h-0.3v-3h0.2C113.8,24.1,119.6,29.8,119.6,37L119.6,37z M117,36.7h2.3c-0.1-6.7-5.6-12.2-12.2-12.2
					v2.3C112.4,26.7,116.8,31.1,117,36.7z M114.7,37h-2.9v-0.2c0-2.8-2.3-5.1-5.1-5.1h-0.1v-2.9h0.2c4.4,0,7.9,3.5,7.9,7.9V37z
					 M112.2,36.7h2.1c-0.1-4.1-3.3-7.3-7.4-7.4v2.1C109.8,31.5,112.2,33.7,112.2,36.7z"/>
			</g>
		</g>
	</g>
</g>
</svg>
